<svg width="674" height="230" viewBox="0 0 674 230" fill="none" xmlns="http://www.w3.org/2000/svg">
<g clip-path="url(#clip0_1178_42166)">
<path d="M324.47 120.68C321.14 120.68 317.81 120.63 314.47 120.7C312.21 120.74 310.99 119.98 310.03 117.68C309.13 115.51 307.38 113.39 305.45 112.02C299.1 107.53 285.95 108.88 280.21 114.28C275.18 119.01 275.81 127.01 282.06 129.69C287 131.81 292.54 132.57 297.88 133.65C305.19 135.13 312.66 135.95 319.89 137.74C338.41 142.33 343.95 156.89 341.46 173.82C339.63 186.24 331.6 194.06 320.89 199.03C303.47 207.11 285.67 207.05 268.22 198.99C256.71 193.68 249.94 184.36 247.74 171.8C247.31 169.33 248.12 167.82 250.74 167.81C258.07 167.77 265.5 167.65 272.82 167.9C274.12 167.95 274.82 170.16 276.05 171.35C277.8 173.04 279.67 174.51 281.73 175.54C290.77 180.08 299.97 180.07 308.99 175.28C312.38 173.48 314.21 170.52 313.76 166.66C313.31 162.84 311.06 160.04 307.25 159.32C300.07 157.96 292.84 156.85 285.6 155.88C278.47 154.92 271.48 153.7 265.07 150.11C257.19 145.69 251.9 139.34 250.54 130.36C249.17 121.25 248.73 112.14 253.63 103.63C260.35 91.9505 271.14 86.5105 283.75 84.4805C296.51 82.4205 309.01 83.7305 320.52 90.3405C329.35 95.4105 335.13 102.81 337.57 112.72C339.24 119.49 338.28 120.7 331.45 120.72C329.12 120.72 326.79 120.72 324.45 120.72V120.7L324.47 120.68ZM266.82 178.67C266.04 178.12 264.54 179.52 264.84 180.43C265.67 182.92 266.51 183.07 268.85 184.96C283.33 196.63 308.28 195.91 322.17 183.6C333.19 173.83 331.41 152.35 316.69 147.45C311.85 145.84 306.74 144.92 301.68 144.07C294.15 142.81 286.46 142.32 279.01 140.71C271.64 139.13 266.5 134.63 265.37 126.64C264.16 118.06 265.55 110.4 272.9 104.7C285.98 94.5705 309.09 96.1805 318.48 108.37C319.37 109.29 320 109.8 320.92 110.17C321.53 110.42 321.88 110.4 322.2 110.01C322.56 109.64 322.6 109.07 322.3 108.65C321.09 106.98 319.97 105.22 318.52 103.81C311.91 97.4005 303.61 95.2605 294.71 95.1605C285.1 95.0505 276.42 97.5605 268.84 103.94C258.11 112.97 259.76 134.42 270.92 140.7C276.07 143.6 281.47 144.57 287.07 145.33C295.47 146.48 303.91 147.37 312.26 148.85C315.07 149.35 318.02 150.8 320.22 152.64C329.41 160.31 327.7 176.59 317.49 183.96C305.31 192.75 279.53 193.14 268.57 180.3C268.12 179.78 267.49 179.13 266.82 178.66V178.67Z" fill="white"/>
<path d="M599.2 146.11C599.2 128.79 599.2 111.47 599.2 94.15C599.2 87.94 599.23 87.91 605.14 87.91C625.79 87.9 646.44 87.89 667.09 87.91C672.27 87.91 672.43 88.08 672.47 93.21C672.5 97.6 672.51 102 672.47 106.4C672.43 113.25 672.69 113.86 667.25 113.88C656.59 113.93 645.93 113.83 635.28 113.84C628.63 113.84 628.55 113.96 628.5 120.46C628.48 122.62 628.6 124.8 628.47 126.95C628.26 130.39 629.84 131.75 633.2 131.71C641.69 131.62 650.19 131.67 658.68 131.67C659.85 131.67 661.01 131.65 662.18 131.67C668.47 131.71 668.55 131.79 668.55 138.17C668.55 143.17 668.44 148.16 668.58 153.16C668.67 156.36 667.4 157.62 664.17 157.58C654.35 157.47 644.52 157.52 634.7 157.56C628.18 157.58 628.6 157.71 628.5 165.25C628.47 167.78 628.46 170.31 628.49 172.83C628.56 178.88 628.51 179.56 633.49 179.59C643.65 179.66 653.81 179.58 663.96 179.56C665.79 179.56 667.63 179.63 669.45 179.57C672.44 179.47 673.62 180.9 673.57 183.82C673.49 189.15 673.59 194.48 673.55 199.81C673.51 204.97 673.27 205.25 668.2 205.25C656.37 205.25 644.58 205.25 632.73 205.25C623.24 205.25 613.75 205.28 604.25 205.22C599.48 205.19 599.22 204.92 599.22 200.05C599.19 182.07 599.21 164.08 599.21 146.1H599.19L599.2 146.11ZM662.08 192.85C662.08 192.67 662.08 192.49 662.08 192.3C662.08 191.78 661.66 191.37 661.14 191.36C659.87 191.34 658.64 191.31 657.35 191.3C645.03 191.28 632.7 191.31 620.38 191.28C615.59 191.27 615.28 190.95 615.27 186.14C615.25 174.48 615.26 162.82 615.32 151.16C615.35 146.26 615.85 145.78 620.84 145.77C631.17 145.76 641.49 145.8 651.82 145.83C653.29 145.83 656.14 145.9 657.95 145.81C658.35 145.79 658.65 145.46 658.64 145.06C658.64 144.75 658.61 144.33 658.6 143.97C658.59 143.61 658.28 143.3 657.91 143.3C656.14 143.3 653.34 143.3 651.88 143.3C641.39 143.27 630.89 143.37 620.4 143.32C615.69 143.3 615.3 142.85 615.28 138.11C615.24 128.12 615.26 118.12 615.28 108.13C615.29 101.88 615.39 101.77 621.77 101.75C633.1 101.72 644.42 101.69 655.75 101.71C657.04 101.71 658.2 101.73 659.5 101.73C659.95 101.73 660.31 101.36 660.3 100.91C660.3 100.69 660.3 100.45 660.3 100.24C660.3 99.85 659.99 99.53 659.6 99.53C658.89 99.52 658.17 99.53 657.46 99.52C644.14 99.48 630.81 99.43 617.49 99.51C613.14 99.53 612.6 100.17 612.59 105.08C612.55 132.73 612.54 160.38 612.59 188.02C612.59 193.17 613.13 193.66 618.43 193.67C631.42 193.72 644.41 193.69 657.4 193.65C658.72 193.65 660.02 193.62 661.35 193.59C661.76 193.59 662.09 193.25 662.09 192.84L662.08 192.85Z" fill="white"/>
<path d="M377.91 205.17C369.59 205.17 361.26 205.22 352.94 205.15C348.82 205.11 348.38 204.66 348.32 200.5C348.24 195.17 348.25 189.85 348.35 184.52C348.43 180.21 348.89 179.85 353.41 179.73C355.57 179.67 357.74 179.67 359.9 179.67C362.35 179.67 363.64 178.41 363.64 176C363.66 156.19 363.65 136.39 363.63 116.58C363.63 114.38 362.47 113.22 360.19 113.29C359.03 113.33 357.86 113.27 356.69 113.27C351.997 113.243 349.643 110.806 349.63 105.96C349.63 101.47 349.73 96.9696 349.67 92.4796C349.63 89.2096 350.8 87.7196 354.37 87.7596C370.18 87.9096 386 87.7996 401.81 87.8396C405.94 87.8496 406.44 88.3496 406.5 92.3996C406.58 97.8896 406.55 103.38 406.54 108.88C406.53 112.04 405.35 113.26 402.11 113.35C392.6 113.61 392.61 113.72 392.61 123.42C392.61 140.07 392.59 156.71 392.61 173.36C392.61 179.53 392.71 179.64 398.6 179.7C408.74 179.8 407.61 178.68 407.68 188.82C407.71 192.81 407.71 196.8 407.72 200.8C407.72 204.02 406.63 205.27 403.38 205.22C394.89 205.09 386.4 205.18 377.91 205.17ZM395.65 192.05C395.58 191.6 395.21 191.35 394.75 191.35C391.69 191.33 388.66 191.3 385.62 191.26C379.05 191.16 378.99 191.19 378.99 184.54C378.97 159.55 378.98 134.56 378.98 109.56C378.98 101.68 378.98 101.72 387.05 101.65C389.3 101.63 391.93 101.65 394.18 101.5C396.21 101.27 396.24 99.7496 394.37 99.4296C390.78 99.4296 386.5 99.4296 382.91 99.4196C379.24 99.4196 375.58 99.3796 371.91 99.3896C364.5 99.4196 361 98.9496 361.16 100.8C361.2 101.26 361.56 101.73 362.02 101.73C365.38 101.73 368.13 101.72 370.87 101.73C377.96 101.77 376.71 101.87 376.74 112.93C376.81 135.25 376.93 157.64 376.69 179.83C376.58 190.15 378.35 191.04 370.5 191.22C368.67 191.26 366.9 191.28 365.06 191.3C363.58 191.31 362.04 191.28 360.77 191.38C360.15 191.43 360.18 192.14 360.23 192.76C360.25 193.07 360.51 193.31 360.82 193.31C372.13 193.24 383.3 193.36 394.57 193.39C395.25 193.39 395.76 192.75 395.65 192.07V192.05Z" fill="white"/>
<path d="M518.9 145.73C518.9 128.42 518.89 111.1 518.9 93.7904C518.9 87.5704 518.94 87.5604 525.34 87.5504C531.33 87.5504 537.33 87.5204 543.32 87.5504C548.16 87.5804 548.35 87.7304 548.36 92.6704C548.4 113.48 548.38 134.29 548.38 155.1C548.38 160.76 548.36 166.42 548.38 172.08C548.41 178.17 548.62 178.39 555 178.4C564.82 178.41 574.49 178.38 584.47 178.36C590.44 178.34 590.75 178.69 590.8 184.49C590.84 189.82 590.73 195.15 590.82 200.47C590.87 203.61 589.62 204.93 586.38 204.92C565.4 204.84 544.43 204.91 523.45 204.86C519.29 204.86 518.91 204.36 518.91 199.65C518.91 181.69 518.91 163.71 518.89 145.71L518.9 145.73ZM533.67 98.8004C533.67 98.8004 533.7 98.7904 533.69 98.7904C532.79 98.7804 532.26 98.8504 532.24 99.6904C532.22 100.6 532.26 102.42 532.24 103.41C532.13 107.4 532.2 111.4 532.19 115.39C532.16 139.36 532.31 163.33 532.35 187.29C532.35 192.62 532.37 192.7 537.45 192.71C550.26 192.74 563.08 192.44 575.89 192.71C577.11 192.74 577.83 192.69 578.8 192.6C579.26 192.56 579.59 192.15 579.57 191.69C579.57 191.6 579.57 191.51 579.56 191.43C579.54 190.97 579.32 190.54 578.87 190.5C577.31 190.39 575.61 190.46 574.05 190.45C563.4 190.41 552.75 190.46 542.09 190.45C534.82 190.44 534.86 191.43 535.04 183.51C535.04 157.38 535.04 131.25 535.03 105.11C534.96 103.23 535.06 101.49 534.94 99.7804C534.9 99.2704 534.19 98.6904 533.68 98.7704L533.67 98.8004Z" fill="white"/>
<path d="M495.36 145.36C494.84 145.02 494.49 144.42 493.99 143.86C494.27 143.01 494.29 142.62 494.49 142.4C509.05 126.74 501.54 105.87 489.55 96.01C481.93 89.75 473.08 87.57 463.53 87.51C449.71 87.42 435.9 87.47 422.08 87.49C416.92 87.49 416.52 87.78 416.51 92.72C416.47 128.35 416.48 163.97 416.51 199.6C416.51 204.36 417 204.81 421.65 204.82C437.96 204.86 454.28 205.06 470.59 204.73C478.07 204.58 485.43 203.24 491.98 198.92C500.99 192.97 505.41 184.19 506.99 174.04C508.79 162.4 505.96 152.2 495.35 145.37L495.36 145.36ZM493.81 172.44C492.05 182.22 485.95 187.98 476.61 191.85C474.69 192.65 472.37 192.94 470.24 192.96C458.25 193.11 446.26 193.17 434.28 193.11C429.92 193.09 429.45 192.54 429.44 188.07C429.39 160.1 429.39 132.12 429.43 104.15C429.43 99.71 429.98 99.12 434.27 99.08C444.76 98.98 455.26 98.77 465.74 99.14C475.46 99.48 483.73 103.82 487.2 113.01C490.69 122.26 489.92 131.39 483.2 139.63C481.65 141.52 479.6 142.98 477.29 145.08C480.09 146.52 482.43 147.41 484.42 148.81C492.64 154.6 495.55 162.79 493.82 172.42L493.81 172.44Z" fill="white"/>
<path d="M472.46 147.5C466.51 147.03 460.49 147.4 454.49 147.4C454.49 147.33 454.49 147.42 454.49 147.34C448.33 147.34 442.14 147.5 435.98 147.45C433.08 147.42 431.83 148.37 431.83 151.32C431.84 163.14 431.74 174.98 431.67 186.8C431.65 189.75 432.94 190.93 435.91 190.91C447.39 190.82 458.9 191.21 470.36 190.75C487.57 189.8 496.92 170.54 488.82 157.51C485 151.37 479.43 148.05 472.47 147.5H472.46ZM470.38 178.74C466.48 179.39 462.42 179.18 458.44 179.39C458.44 179.32 458.37 179.45 458.37 179.39C455.04 179.39 451.77 179.35 448.44 179.35C445.89 179.35 444.38 178.18 444.43 175.34C444.51 170.85 444.49 166.36 444.45 161.87C444.43 159.39 445.57 158.18 448.05 158.19C455.2 158.21 462.36 157.96 469.49 158.32C474.75 158.59 478.08 162.64 478.32 167.98C478.61 174.25 476.29 177.77 470.38 178.75V178.74Z" fill="white"/>
<path d="M436.15 145.08C442.14 145.02 448.13 145.11 454.12 144.98C459.27 144.87 464.48 144.98 469.54 144.2C479.9 142.6 486.84 133.99 486.86 123.47C486.88 113.07 479.82 102.77 469.61 101.82C458.39 100.77 446.66 101.69 435.37 101.37C432.43 101.29 431.74 103.12 431.74 105.58C431.74 111.4 431.74 117.23 431.74 123.05H431.69C431.69 128.87 431.75 134.7 431.66 140.52C431.61 143.68 433.02 145.1 436.14 145.07L436.15 145.08ZM444.43 117.32C444.37 114.51 445.8 113.43 448.4 113.44C450.9 113.44 453.16 113.44 455.66 113.44L466.61 113.6C471.65 114.48 473.25 118.21 473.19 123.67C473.14 128.98 471.01 132.14 465.85 132.68C459.93 133.3 453.91 133.08 447.93 133.1C445.56 133.1 444.34 131.84 444.41 129.3C444.51 125.31 444.51 121.31 444.43 117.32Z" fill="white"/>
<path d="M200.54 204.14C192.22 204.14 183.89 204.19 175.57 204.12C171.45 204.08 171.01 203.63 170.95 199.47C170.87 194.14 170.88 188.82 170.98 183.49C171.06 179.18 171.52 178.82 176.04 178.7C178.2 178.64 180.37 178.64 182.53 178.64C184.98 178.64 186.27 177.38 186.27 174.97C186.29 155.16 186.28 135.36 186.26 115.55C186.26 113.35 185.1 112.19 182.82 112.26C181.66 112.3 180.49 112.24 179.32 112.24C174.626 112.214 172.273 109.777 172.26 104.93C172.26 100.44 172.36 95.9403 172.3 91.4503C172.26 88.1803 173.43 86.6903 177 86.7303C192.81 86.8803 208.63 86.7703 224.44 86.8103C228.57 86.8203 229.07 87.3203 229.13 91.3703C229.21 96.8603 229.18 102.35 229.17 107.85C229.16 111.01 227.98 112.23 224.74 112.32C215.23 112.58 215.24 112.69 215.24 122.39C215.24 139.04 215.22 155.68 215.24 172.33C215.24 178.5 215.34 178.61 221.23 178.67C231.37 178.77 230.24 177.65 230.31 187.79C230.34 191.78 230.34 195.77 230.35 199.77C230.35 202.99 229.26 204.24 226.01 204.19C217.52 204.06 209.03 204.15 200.54 204.14ZM218.28 191.02C218.21 190.57 217.84 190.32 217.38 190.32C214.32 190.3 211.29 190.27 208.25 190.23C201.68 190.13 201.62 190.16 201.62 183.51C201.6 158.52 201.61 133.53 201.61 108.53C201.61 100.65 201.61 100.69 209.68 100.62C211.93 100.6 214.56 100.62 216.81 100.47C218.84 100.24 218.87 98.7203 217 98.4003C213.41 98.4003 209.13 98.4003 205.54 98.3903C201.87 98.3903 198.21 98.3503 194.54 98.3603C187.13 98.3903 183.63 97.9203 183.79 99.7703C183.83 100.23 184.19 100.7 184.65 100.7C188.01 100.7 190.76 100.69 193.5 100.7C200.59 100.74 199.34 100.84 199.37 111.9C199.44 134.22 199.56 156.61 199.32 178.8C199.21 189.12 200.98 190.01 193.13 190.19C191.3 190.23 189.53 190.25 187.69 190.27C186.21 190.28 184.67 190.25 183.4 190.35C182.78 190.4 182.81 191.11 182.86 191.73C182.88 192.04 183.14 192.28 183.45 192.28C194.76 192.21 205.93 192.33 217.2 192.36C217.88 192.36 218.39 191.72 218.28 191.04V191.02Z" fill="white"/>
<path d="M150.64 0.459961L136.86 31.97L159.36 85.17L196.4 0.649961L150.64 0.459961Z" fill="white"/>
<path d="M98.86 222.39L137.15 135.42L113.9 83.47L96.37 118.3L46.22 0.29L3.99 0H0L95.75 229.35" fill="white"/>
<path d="M113.96 83.3497L137.22 135.31L159.36 85.1597L136.86 31.9697L113.96 83.3497Z" fill="#C32F5B"/>
</g>
<defs>
<clipPath id="clip0_1178_42166">
<rect width="673.58" height="229.35" fill="white"/>
</clipPath>
</defs>
</svg>
