<svg width="50" height="50" viewBox="0 0 50 50" fill="none" xmlns="http://www.w3.org/2000/svg">
<path d="M35.7844 18.049C38.9997 20.3556 42.9386 21.7127 47.1928 21.7127V13.4972C46.3877 13.4974 45.5847 13.4131 44.797 13.2456V19.7124C40.5431 19.7124 36.6047 18.3553 33.3885 16.0488V32.8144C33.3885 41.2014 26.6137 47.9999 18.257 47.9999C15.139 47.9999 12.2408 47.0539 9.83337 45.4314C12.5811 48.2509 16.413 50 20.6524 50C29.0096 50 35.7847 43.2015 35.7847 34.8142V18.049H35.7844ZM38.7399 9.76049C37.0967 7.95889 36.0178 5.63065 35.7844 3.0567V2H33.514C34.0855 5.2715 36.0348 8.06648 38.7399 9.76049ZM15.119 38.9955C14.2009 37.7875 13.7048 36.3097 13.707 34.7902C13.707 30.9543 16.8058 27.8441 20.6288 27.8441C21.3413 27.8439 22.0495 27.9534 22.7285 28.1696V19.7704C21.935 19.6613 21.1341 19.615 20.3337 19.632V26.1695C19.6542 25.9533 18.9456 25.8434 18.2329 25.8441C14.4099 25.8441 11.3113 28.954 11.3113 32.7904C11.3113 35.503 12.8602 37.8515 15.119 38.9955Z" fill="#FF004F"/>
<path d="M33.3885 16.0487C36.6046 18.3551 40.543 19.7123 44.7969 19.7123V13.2455C42.4224 12.7379 40.3203 11.4926 38.7399 9.76049C36.0345 8.06631 34.0854 5.27133 33.5139 2H27.5502V34.8139C27.5367 38.6393 24.4432 41.7368 20.6284 41.7368C18.3804 41.7368 16.3832 40.6614 15.1184 38.9955C12.8598 37.8515 11.3109 35.5028 11.3109 32.7906C11.3109 28.9545 14.4095 25.8443 18.2325 25.8443C18.965 25.8443 19.671 25.9587 20.3332 26.1696V19.6321C12.1234 19.8024 5.52063 26.5345 5.52063 34.814C5.52063 38.9471 7.16486 42.6939 9.83347 45.4316C12.2409 47.0539 15.1391 48.0001 18.2571 48.0001C26.614 48.0001 33.3886 41.2012 33.3886 32.8144V16.0487H33.3885Z" fill="black"/>
<path d="M44.797 13.2454V11.4968C42.6557 11.5001 40.5566 10.8983 38.7399 9.76028C40.3481 11.5272 42.4657 12.7456 44.797 13.2454ZM33.514 1.99997C33.4594 1.68732 33.4176 1.37261 33.3885 1.0567V0H25.1542V32.8142C25.141 36.6391 22.0478 39.7366 18.2326 39.7366C17.1125 39.7366 16.055 39.4698 15.1184 38.9956C16.3833 40.6613 18.3804 41.7366 20.6284 41.7366C24.4429 41.7366 27.5369 38.6394 27.5502 34.814V1.99997H33.514ZM20.3336 19.6321V17.7706C19.6456 17.6762 18.9519 17.6289 18.2574 17.6292C9.89982 17.629 3.125 24.4279 3.125 32.8142C3.125 38.0719 5.78762 42.7056 9.83369 45.4312C7.16508 42.6937 5.52085 38.9467 5.52085 34.8138C5.52085 26.5344 12.1234 19.8023 20.3336 19.6321Z" fill="#00F2EA"/>
</svg>
